<svg width="106" height="106" viewBox="0 0 106 106" fill="none" xmlns="http://www.w3.org/2000/svg">
<path d="M56.1558 76.2582C56.9388 77.0402 57.9666 77.431 58.9945 77.431C60.0224 77.431 61.0505 77.0399 61.8326 76.2578L76.2578 61.8326C77.822 60.2684 77.8223 57.7219 76.2578 56.1555L66.9119 46.8096L69.6553 44.0661C70.0901 43.6314 70.0901 42.9266 69.6553 42.4918C69.2205 42.057 68.5156 42.057 68.081 42.4918L35.5865 74.9863C35.3566 75.2162 35.2387 75.535 35.2638 75.8591C35.2887 76.1833 35.4542 76.4801 35.7167 76.6721C40.7587 80.3588 46.7352 82.3076 53.0003 82.3076C69.1605 82.3076 82.3078 69.1604 82.3078 53.0001C82.3078 46.7352 80.3591 40.7587 76.6722 35.7165C76.4804 35.4541 76.1834 35.2886 75.8592 35.2636C75.5345 35.2384 75.2162 35.3566 74.9864 35.5865L71.1953 39.3776C70.7605 39.8124 70.7605 40.5171 71.1953 40.9519C71.6301 41.3867 72.335 41.3867 72.7696 40.9519L75.6198 38.1018C78.5427 42.5252 80.0812 47.6487 80.0812 53.0001C80.0812 67.9327 67.9328 80.0811 53.0003 80.0811C47.6488 80.0811 42.5255 78.5425 38.1021 75.6197L46.8097 66.912L56.1558 76.2582ZM60.2581 74.6832C59.5615 75.3798 58.427 75.3796 57.7297 74.6832L54.7624 71.7159C55.984 70.8214 57.4521 70.3375 58.9948 70.3375C60.5371 70.3376 62.0047 70.8213 63.226 71.7153L60.2581 74.6832ZM74.6833 60.2581L71.7154 63.226C70.8214 62.0047 70.3378 60.5371 70.3378 58.9947C70.3378 57.4519 70.8216 55.9839 71.7159 54.7625L74.6827 57.7294C75.3796 58.427 75.3799 59.5615 74.6833 60.2581ZM70.1283 53.1747C68.8223 54.8273 68.1114 56.8557 68.1114 58.9945C68.1114 61.133 68.8221 63.1611 70.1279 64.8135L64.8138 70.1276C63.1613 68.8218 61.1333 68.1109 58.9951 68.1109C58.9949 68.1109 58.9948 68.1109 58.9947 68.1109C56.856 68.1109 54.8276 68.822 53.1749 70.1282L48.3839 65.3374L50.6985 63.0228C51.4623 63.198 52.2344 63.2849 53.0013 63.2849C55.6901 63.2848 58.3133 62.2297 60.2708 60.2712C62.7887 57.7547 63.8129 54.1399 63.0234 50.6977L65.3374 48.3837L70.1283 53.1747ZM58.6963 58.6967C57.0825 60.3114 54.892 61.1409 52.6709 61.0502L61.0502 52.6709C61.1411 54.8921 60.3113 57.0828 58.6963 58.6967Z" fill="url(#paint0_linear)"/>
<path d="M79.87 26.1301C72.6926 18.9527 63.15 15 53 15C42.85 15 33.3074 18.9527 26.13 26.1301C18.9527 33.3074 15 42.85 15 53C15 57.256 15.6983 61.4327 17.0755 65.4141C17.2764 65.9953 17.9106 66.3033 18.4915 66.1023C19.0727 65.9013 19.3807 65.2673 19.1797 64.6862C17.8837 60.9396 17.2266 57.0078 17.2266 53C17.2266 43.4448 20.9477 34.4613 27.7045 27.7045C34.4612 20.9476 43.4448 17.2266 53 17.2266C62.5552 17.2266 71.5387 20.9477 78.2955 27.7045C85.0524 34.4612 88.7734 43.4448 88.7734 53C88.7734 62.5552 85.0523 71.5387 78.2955 78.2955C71.5388 85.0524 62.5552 88.7734 53 88.7734C46.1682 88.7734 39.5269 86.8412 33.7943 83.1855C28.2118 79.6257 23.7296 74.6055 20.8321 68.6677C20.5624 68.1151 19.8958 67.8858 19.3434 68.1555C18.7908 68.425 18.5615 69.0917 18.8312 69.6441C21.9086 75.9507 26.6688 81.2824 32.5971 85.0628C38.6881 88.947 45.7432 91 53 91C63.15 91 72.6926 87.0473 79.87 79.8699C87.0473 72.6926 91 63.15 91 53C91 42.85 87.0473 33.3074 79.87 26.1301Z" fill="url(#paint1_linear)"/>
<path d="M70.2836 29.3281C65.2415 25.6412 59.265 23.6925 53 23.6925C36.8398 23.6925 23.6925 36.8398 23.6925 53C23.6925 59.265 25.6412 65.2415 29.3281 70.2836C29.5199 70.5461 29.8169 70.7116 30.1411 70.7365C30.1697 70.7387 30.1984 70.7398 30.2269 70.7398C30.5209 70.7398 30.8044 70.6232 31.014 70.4136L70.4138 31.0139C70.6437 30.784 70.7616 30.4651 70.7365 30.1411C70.7114 29.8169 70.5461 29.52 70.2836 29.3281ZM34.2844 42.7743C36.1169 45.2857 36.1167 48.7262 34.284 51.2373L31.3174 48.2708C30.6205 47.573 30.6204 46.4385 31.317 45.7419L34.2844 42.7743ZM35.8718 41.1868L41.1863 35.8722C42.8389 37.178 44.8668 37.8888 47.0054 37.8888C49.1442 37.8888 51.1726 37.1779 52.8251 35.8718L57.6161 40.6626L55.3021 42.9766C51.8599 42.1871 48.2453 43.2113 45.7292 45.7288C43.2113 48.2453 42.1871 51.8601 42.9765 55.3023L40.6625 57.6163L35.8712 52.825C38.5523 49.4238 38.5526 44.588 35.8718 41.1868ZM42.774 34.2846L45.7419 31.3167C46.4386 30.6201 47.5731 30.6202 48.2703 31.3167L51.2376 34.284C50.0161 35.1783 48.5482 35.6621 47.0055 35.6621C45.4629 35.6622 43.9953 35.1786 42.774 34.2846ZM47.3037 47.3033C48.9175 45.6887 51.1079 44.8591 53.3291 44.9498L44.9498 53.3291C44.8589 51.1079 45.6887 48.9172 47.3037 47.3033ZM59.1906 39.0881L49.8442 29.7418C48.2782 28.1778 45.7318 28.1781 44.1675 29.7424L29.7424 44.1675C28.1781 45.7318 28.1778 48.2782 29.7424 49.8447L39.0883 59.1906L30.3805 67.8984C27.4576 63.4749 25.9191 58.3515 25.9191 53C25.9191 38.0675 38.0675 25.9191 53 25.9191C58.3515 25.9191 63.4748 27.4576 67.8982 30.3805L59.1906 39.0881Z" fill="url(#paint2_linear)"/>
<path fill-rule="evenodd" clip-rule="evenodd" d="M35.8718 41.1868L41.1863 35.8722C42.8389 37.178 44.8668 37.8888 47.0054 37.8888C49.1442 37.8888 51.1726 37.1779 52.8251 35.8718L57.6161 40.6626L59.1906 39.0881L49.8442 29.7418C48.2782 28.1778 45.7318 28.1781 44.1675 29.7424L29.7424 44.1675C28.1781 45.7318 28.1778 48.2782 29.7424 49.8447L39.0883 59.1906L40.6625 57.6163L35.8712 52.825C38.5523 49.4238 38.5526 44.588 35.8718 41.1868ZM34.284 51.2373C36.1167 48.7262 36.1169 45.2857 34.2844 42.7743L31.317 45.7419C30.6204 46.4385 30.6205 47.573 31.3174 48.2708L34.284 51.2373ZM45.7419 31.3167L42.774 34.2846C43.9953 35.1786 45.4629 35.6622 47.0055 35.6621C48.5482 35.6621 50.0161 35.1783 51.2376 34.284L48.2703 31.3167C47.5731 30.6202 46.4386 30.6201 45.7419 31.3167Z" fill="white"/>
<path d="M55.3021 42.9766C51.8599 42.1871 48.2453 43.2113 45.7292 45.7288C43.2113 48.2453 42.1871 51.8602 42.9765 55.3023L44.9498 53.3291C44.8589 51.1079 45.6887 48.9172 47.3037 47.3033C48.9175 45.6887 51.1079 44.8591 53.3291 44.9498L55.3021 42.9766Z" fill="white"/>
<path fill-rule="evenodd" clip-rule="evenodd" d="M58.9945 77.431C57.9666 77.431 56.9388 77.0402 56.1558 76.2582L46.8097 66.912L48.3839 65.3374L53.1749 70.1282C54.8276 68.822 56.8564 68.1109 58.9951 68.1109C61.1333 68.1109 63.1613 68.8218 64.8138 70.1276L70.1279 64.8135C68.8221 63.1611 68.1114 61.133 68.1114 58.9945C68.1114 56.8557 68.8222 54.8273 70.1283 53.1747L65.3374 48.3837L66.9119 46.8096L76.2578 56.1555C77.8223 57.7219 77.822 60.2684 76.2578 61.8326L61.8326 76.2578C61.0505 77.0399 60.0224 77.431 58.9945 77.431ZM63.0234 50.6977L61.0502 52.6709C61.1411 54.8921 60.3113 57.0828 58.6963 58.6967C57.0825 60.3114 54.892 61.1409 52.6709 61.0502L50.6985 63.0228C51.4623 63.198 52.2344 63.2849 53.0013 63.2849C55.6901 63.2848 58.3133 62.2297 60.2708 60.2712C62.7887 57.7547 63.8129 54.1399 63.0234 50.6977ZM57.7297 74.6832C58.427 75.3796 59.5615 75.3798 60.2581 74.6832L63.226 71.7153C62.0047 70.8213 60.5371 70.3376 58.9948 70.3375C57.4521 70.3375 55.984 70.8214 54.7624 71.7159L57.7297 74.6832ZM71.7154 63.226L74.6833 60.2581C75.3799 59.5615 75.3796 58.427 74.6827 57.7294L71.7159 54.7625C70.8216 55.9839 70.3378 57.4519 70.3378 58.9947C70.3378 60.5371 70.8214 62.0047 71.7154 63.226Z" fill="white"/>
<defs>
<linearGradient id="paint0_linear" x1="16.3908" y1="32.3856" x2="99.8779" y2="49.3526" gradientUnits="userSpaceOnUse">
<stop stop-color="#3434D8"/>
<stop offset="1" stop-color="#9980F4"/>
</linearGradient>
<linearGradient id="paint1_linear" x1="16.3908" y1="32.3856" x2="99.8779" y2="49.3526" gradientUnits="userSpaceOnUse">
<stop stop-color="#3434D8"/>
<stop offset="1" stop-color="#9980F4"/>
</linearGradient>
<linearGradient id="paint2_linear" x1="16.3908" y1="32.3856" x2="99.8779" y2="49.3526" gradientUnits="userSpaceOnUse">
<stop stop-color="#3434D8"/>
<stop offset="1" stop-color="#9980F4"/>
</linearGradient>
</defs>
</svg>
