<svg width="47" height="48" viewBox="0 0 47 48" fill="none" xmlns="http://www.w3.org/2000/svg">
<path d="M23.5 0.75C10.6562 0.75 0.25 11.1562 0.25 24C0.25 36.8438 10.6562 47.25 23.5 47.25C36.3438 47.25 46.75 36.8438 46.75 24C46.75 11.1562 36.3438 0.75 23.5 0.75ZM34.8438 16.6875L31.0938 34.6875C30.8125 36 30.0625 36.2812 28.9375 35.7188L23.125 31.4062L20.3125 34.125C20.0312 34.4062 19.75 34.6875 19.1875 34.6875L19.5625 28.7812L30.3438 19.0312C30.8125 18.6562 30.25 18.375 29.5938 18.75L16.2812 27.1875L10.5625 25.4062C9.34375 25.0312 9.34375 24.0938 10.8438 23.5312L33.25 14.9062C34.2812 14.5312 35.2188 15.1875 34.8438 16.6875Z" fill="white"/>
</svg>
