<svg width="52" height="30" viewBox="0 0 52 30" fill="none" xmlns="http://www.w3.org/2000/svg">
<path d="M50.0938 2.0625C50.375 0.9375 50.0938 0 48.4062 0H42.875C41.4688 0 40.8125 0.75 40.4375 1.59375C40.4375 1.59375 37.625 8.4375 33.6875 12.9375C32.375 14.1562 31.8125 14.625 31.0625 14.625C30.7812 14.625 30.2188 14.1562 30.2188 13.0312V2.0625C30.2188 0.65625 29.8438 0 28.625 0H20C19.0625 0 18.5938 0.65625 18.5938 1.3125C18.5938 2.625 20.5625 2.90625 20.75 6.65625V14.8125C20.75 16.5938 20.4688 16.9688 19.7188 16.9688C17.8438 16.9688 13.3438 10.0312 10.625 2.15625C10.0625 0.65625 9.5 0 8.09375 0H2.5625C1.0625 0 0.6875 0.75 0.6875 1.59375C0.6875 3.09375 2.5625 10.3125 9.40625 19.9688C14 26.5312 20.4688 30 26.2812 30C29.75 30 30.2188 29.25 30.2188 27.9375C30.2188 21.6562 29.9375 21 31.625 21C32.4688 21 33.875 21.4688 37.1562 24.6562C40.9062 28.4062 41.5625 30 43.625 30H49.1562C50.75 30 51.5 29.25 51.0312 27.6562C50 24.4688 42.9688 17.7188 42.5938 17.25C41.75 16.2188 42.0312 15.75 42.5938 14.8125C42.5938 14.8125 49.3438 5.25 50.0938 2.0625Z" fill="white"/>
</svg>
