<svg width="38" height="28" viewBox="0 0 38 28" fill="none" xmlns="http://www.w3.org/2000/svg">
<path d="M0.00792113 14.0957C0.0390375 14.3001 0.162183 14.4875 0.353017 14.6208C0.543851 14.7541 0.788485 14.8236 1.03857 14.8156L34.3511 14.8156L18.3293 26.5401C18.2137 26.6225 18.1227 26.7256 18.0631 26.8415C18.0035 26.9574 17.9771 27.083 17.9857 27.2086C17.993 27.3667 18.0556 27.5197 18.1659 27.6493C18.2761 27.7788 18.4294 27.8795 18.6074 27.9392C18.7853 27.9989 18.9804 28.0151 19.1693 27.9858C19.3582 27.9566 19.5328 27.8831 19.6722 27.7743L37.6617 14.6099C37.768 14.5327 37.8532 14.4377 37.9115 14.3313C37.9698 14.2249 38 14.1096 38 13.9928C38 13.8761 37.9698 13.7607 37.9115 13.6543C37.8532 13.5479 37.768 13.453 37.6617 13.3757L19.6722 0.2114C19.5738 0.138805 19.4589 0.0828811 19.3343 0.0468227C19.2096 0.0107642 19.0775 -0.00471771 18.9455 0.00125039C18.8136 0.00721849 18.6843 0.0345241 18.5652 0.0816108C18.4461 0.128698 18.3394 0.194642 18.2512 0.275678C18.163 0.356713 18.0951 0.451257 18.0513 0.553905C18.0075 0.656552 17.9887 0.765298 17.9959 0.873931C18.0032 0.982564 18.0363 1.08896 18.0935 1.18704C18.1507 1.28512 18.2308 1.37296 18.3292 1.44556L34.3511 13.1701L1.03857 13.1701C0.893522 13.1654 0.748984 13.1868 0.615 13.2328C0.481016 13.2787 0.360802 13.3482 0.262717 13.4363C0.164632 13.5243 0.0910311 13.629 0.0470294 13.7428C0.0030277 13.8567 -0.0103178 13.9771 0.00792113 14.0957Z" fill="url(#paint0_linear)"/>
<defs>
<linearGradient id="paint0_linear" x1="8.69281" y1="27.4876" x2="13.3838" y2="-3.8387" gradientUnits="userSpaceOnUse">
<stop stop-color="#3434D8"/>
<stop offset="1" stop-color="#9980F4"/>
</linearGradient>
</defs>
</svg>
