<svg width="35" height="71" viewBox="0 0 35 71" fill="none" xmlns="http://www.w3.org/2000/svg">
<path d="M16.8994 0.00792637C16.6509 0.0390609 16.4231 0.162278 16.2611 0.353224C16.0991 0.54417 16.0146 0.788948 16.0244 1.03918V54.3829L1.77438 38.3517C1.67425 38.2361 1.54893 38.145 1.40808 38.0854C1.26722 38.0258 1.11457 37.9993 0.961875 38.0079C0.769732 38.0153 0.583782 38.0779 0.426296 38.1882C0.268809 38.2985 0.146461 38.4519 0.0739129 38.63C0.00136476 38.808 -0.0183077 39.0032 0.0172455 39.1922C0.0527987 39.3812 0.142072 39.5559 0.274375 39.6954L16.2744 57.6954C16.3682 57.8018 16.4836 57.887 16.6129 57.9454C16.7423 58.0038 16.8825 58.0339 17.0244 58.0339C17.1662 58.0339 17.3065 58.0038 17.4358 57.9454C17.5651 57.887 17.6805 57.8018 17.7744 57.6954L33.7744 39.6954C33.8626 39.5969 33.9306 39.482 33.9744 39.3573C34.0182 39.2325 34.037 39.1003 34.0298 38.9683C34.0225 38.8363 33.9893 38.707 33.9321 38.5878C33.8749 38.4686 33.7947 38.3618 33.6963 38.2736C33.5978 38.1853 33.4829 38.1174 33.3581 38.0735C33.2333 38.0297 33.1012 38.0109 32.9691 38.0181C32.8371 38.0254 32.7078 38.0586 32.5886 38.1158C32.4694 38.173 32.3626 38.2532 32.2744 38.3517L18.0244 54.3829V1.03918C18.0301 0.894047 18.004 0.749423 17.9482 0.615361C17.8923 0.481298 17.8079 0.361014 17.7008 0.262872C17.5938 0.16473 17.4666 0.091085 17.3282 0.0470575C17.1898 0.0030301 17.0435 -0.0103232 16.8994 0.00792637ZM0.961875 50.0079C0.769732 50.0153 0.583782 50.0779 0.426296 50.1882C0.268809 50.2985 0.146461 50.4519 0.0739129 50.63C0.00136476 50.808 -0.0183077 51.0032 0.0172455 51.1922C0.0527987 51.3812 0.142072 51.5559 0.274375 51.6954L16.2744 69.6954C16.3682 69.8018 16.4836 69.887 16.6129 69.9454C16.7423 70.0038 16.8825 70.0339 17.0244 70.0339C17.1662 70.0339 17.3065 70.0038 17.4358 69.9454C17.5651 69.887 17.6805 69.8018 17.7744 69.6954L33.7744 51.6954C33.8626 51.5969 33.9306 51.482 33.9744 51.3573C34.0182 51.2325 34.037 51.1003 34.0298 50.9683C34.0225 50.8363 33.9893 50.707 33.9321 50.5878C33.8749 50.4686 33.7947 50.3618 33.6963 50.2736C33.5978 50.1853 33.4829 50.1173 33.3581 50.0735C33.2333 50.0297 33.1012 50.0109 32.9691 50.0181C32.8371 50.0254 32.7078 50.0586 32.5886 50.1158C32.4694 50.173 32.3626 50.2532 32.2744 50.3517L17.0244 67.5079L1.77438 50.3517C1.67425 50.2361 1.54893 50.145 1.40808 50.0854C1.26722 50.0258 1.11457 49.9993 0.961875 50.0079Z" fill="url(#paint0_linear)"/>
<defs>
<linearGradient id="paint0_linear" x1="0.622795" y1="16.0208" x2="39.1747" y2="19.828" gradientUnits="userSpaceOnUse">
<stop stop-color="#3434D8"/>
<stop offset="1" stop-color="#9980F4"/>
</linearGradient>
</defs>
</svg>
