<svg width="620" height="191" viewBox="0 0 620 191" fill="none" xmlns="http://www.w3.org/2000/svg">
<path fill-rule="evenodd" clip-rule="evenodd" d="M13.8481 175.313C13.001 172.573 28.6993 166.41 35.9627 166.58C34.7101 169.912 15.1998 178.833 13.8481 175.313ZM160.964 91.1182C166.848 90.2225 190.765 74.2164 186.106 68.0361C179.6 59.4285 134.74 109.14 142.445 114.254C145.148 116.045 160.468 106.739 164.812 101.508C161.306 98.5882 159.963 95.5877 160.964 91.154V91.1182ZM224.388 115.544C223.955 109.354 255.595 75.2375 260.705 77.7723C271.501 84.8752 229.948 128.406 224.388 115.544ZM315.847 59.7778C323.345 54.9948 338.836 61.0766 339.629 65.0176C322.191 74.4493 295.904 112.982 298.563 133.046C267.644 134.183 282.621 80.9341 315.847 59.7778ZM432.846 64.3011C431.71 55.8188 419.175 51.8241 411.912 52.8183C404.648 53.8125 380.812 69.3259 381.191 81.5074C381.569 93.6888 399.836 101.831 399.503 107.912C399.286 111.898 369.692 129.185 364.808 116.941C366.514 115.456 368.144 113.887 369.692 112.239C375.838 105.646 367.691 97.7015 364.952 96.1967C359.202 109.731 339.232 124.492 334.06 120.64C329.148 116.995 361.996 72.1742 390.473 44.0136C442.488 42.4372 496.297 46.6201 503.416 61.6856C512.275 50.6149 503.101 36.7137 491.449 32.8353C475.876 27.6403 440.929 28.3031 403.927 31.7784C412.849 24.4964 420.437 20.3046 424.96 21.5854C423.546 14.7423 411.119 6.89603 399.07 11.07C395.465 12.306 385.147 21.9616 372.828 35.3164C343.089 39.2127 315.099 44.3987 298.166 49.2624C290.317 51.5106 290.714 55.0396 290.957 57.7088C299.779 52.3973 329.383 47.7218 363.843 45.3661C336.132 77.0916 304.592 120.658 316.487 130.081C325.985 137.632 346.91 131.317 362.447 118.983C361.239 126.086 366.123 132.884 374.657 133.144C390.058 133.61 419.716 117.711 419.535 107.653C419.355 97.594 402.702 88.2519 402.125 80.5221C401.548 72.7923 430.232 63.7726 432.846 64.3011ZM455.24 57.3684C464.576 54.9052 478.382 61.3005 478.255 62.6172C465.45 69.2005 452.653 90.7599 449.418 100.012C461.277 88.8521 471.046 73.9746 486.627 67.4897C493.116 64.8027 503.957 72.4429 506.065 78.2381C502.794 77.8529 490.827 79.2592 469.694 95.722C488.781 97.5134 481.094 125.441 495.089 128.478C489.34 132.06 475.669 134.237 471.253 128.478C465.891 121.428 465.044 106.757 456.222 105.19C446.886 112.158 440.118 122.208 439.767 131.944L439.568 131.138C439.622 131.55 439.677 131.953 439.758 132.365C406.288 121.196 441.317 62.1693 455.24 57.3684ZM209.509 24.1829C211.889 24.0307 217.62 18.7102 216.43 13.7212C215.214 8.45454 211.357 1.88014 197.209 0.196239C147.789 -5.70639 82.5441 123.265 49.2369 155.581C47.5427 155.528 4.1245 161.502 0.42972 174.391C-3.26506 187.28 17.5519 191.355 36.5485 184.467C55.5451 177.579 68.2876 162.747 68.2876 162.747C88.3656 161.35 126.963 159.827 174.364 158.833C172.354 164.162 171.147 168.497 170.958 171.471C169.948 187.226 185.484 191.355 185.07 189.949C183.403 184.297 186.8 172.823 193.325 158.474C293.21 156.79 423.861 157.641 506.092 166.598C505.644 168.462 505.343 170.358 505.191 172.268C504.182 188.014 519.709 192.143 519.304 190.746C517.979 186.268 519.412 178.359 522.665 168.605C553.224 172.716 574.843 178.233 582.142 185.524C587.396 168.184 566.263 156.979 530.01 150.028C546.51 112.91 576.618 66.1014 587.594 65.573C585.927 62.1514 576.78 56.5264 564.93 60.4585C554.701 64.0413 531.343 113.779 522.575 104.213C516.78 97.9433 536.597 63.683 541.058 61.6856C533.236 58.2193 520.872 60.5839 516.095 65.3849C511.166 71.798 500.334 115.803 507.985 120.354C513.536 123.659 522.638 118.437 533.524 108.71C525.868 121.108 519.003 133.971 512.968 147.224C432.314 135.822 298.211 140.256 199.461 145.935C203.742 137.64 208.743 128.764 214.178 119.753C215.664 125.334 218.584 132.66 230.182 132.849C241.78 133.037 259.362 120.47 270.374 105.646C284.721 86.3262 288.641 63.1367 276.917 59.1508C264.201 54.8336 243.285 76.7064 230.849 93.6798C250.368 59.9659 288.064 20.7882 298.563 22.5528C297.13 12.9509 283.243 7.32596 274.457 11.3297C258.803 18.4953 228.119 60.978 204.166 100.98L204.111 100.917C204.111 100.917 187.206 118.365 183.673 115.992C177.067 111.513 191.378 91.9153 201.777 85.1976C200.182 81.1491 195.415 79.2323 192.766 78.5605C192.766 78.5605 198.056 70.974 196.37 66.2626C194.992 62.3574 181.546 50.6865 153.664 75.963C145.211 83.6301 107.795 117.487 123.836 131.183C134.469 140.256 155.043 120.613 162.027 115.499C160.18 117.864 155.286 134.362 170.345 133.153C177.347 132.598 185.989 126.471 193.18 120.031C187.773 129.884 182.997 139.092 179.293 147.135C121.249 150.718 79.2638 154.408 74.6498 154.659C115.139 103.21 189.747 -9.26229 207.671 14.3303C210.266 17.7608 210.87 22.8663 209.509 24.1829Z" fill="white"/>
<path fill-rule="evenodd" clip-rule="evenodd" d="M613.025 44.963C612.917 44.6943 612.764 44.354 612.574 43.9419L611.971 42.5894C611.754 42.1147 611.52 41.6131 611.277 41.1026L610.583 39.6605C610.367 39.2037 610.168 38.7648 609.979 38.4424C609.79 38.1199 609.637 37.8064 609.519 37.6183C609.393 38.944 609.294 40.3681 609.213 41.9087C609.132 43.4493 609.069 45.0078 609.006 46.5753H607.384C607.384 45.5631 607.483 44.551 607.537 43.5299C607.591 42.5088 607.663 41.4967 607.735 40.5025C607.807 39.5083 607.888 38.5409 607.978 37.6004C608.069 36.6599 608.159 35.809 608.258 34.9133H609.709C610.015 35.406 610.349 35.9882 610.7 36.7047C611.051 37.4213 611.412 38.0841 611.763 38.8096C612.115 39.5351 612.457 40.2786 612.791 41.013L613.692 42.9925C613.962 42.3834 614.269 41.7117 614.593 40.9772C614.917 40.2427 615.26 39.5083 615.611 38.7738C615.963 38.0393 616.323 37.3407 616.675 36.6689C617.026 35.9971 617.36 35.4149 617.666 34.8775H619.099C619.489 38.6275 619.79 42.5088 620 46.5215H618.378C618.315 44.9541 618.252 43.3956 618.171 41.855C618.09 40.3144 617.99 38.8902 617.864 37.5646C617.747 37.7527 617.603 38.0304 617.414 38.3886C617.224 38.7469 617.017 39.15 616.801 39.6068C616.585 40.0636 616.359 40.5025 616.107 41.0489C615.855 41.5952 615.638 42.061 615.422 42.5357L614.809 43.8882C614.62 44.3002 614.476 44.6406 614.359 44.9093L613.025 44.963ZM605.68 34.9313V36.3465H601.977V46.5753H600.318V36.3465H596.57V34.9313H605.68Z" fill="white"/>
</svg>
