<svg width="156" height="49" viewBox="0 0 156 49" fill="none" xmlns="http://www.w3.org/2000/svg">
<path fill-rule="evenodd" clip-rule="evenodd" d="M3.48436 44.9757C3.27122 44.2725 7.22112 42.6916 9.04869 42.7353C8.73351 43.5901 3.82448 45.8787 3.48436 44.9757ZM40.5005 23.3759C41.9812 23.1461 47.999 19.0398 46.8267 17.4543C45.1896 15.2461 33.9022 27.9991 35.8409 29.3112C36.5211 29.7708 40.3758 27.3833 41.4687 26.0414C40.5867 25.2923 40.2488 24.5225 40.5005 23.3851V23.3759ZM56.4588 29.6421C56.35 28.0543 64.311 19.3018 65.5967 19.9521C68.3131 21.7743 57.8579 32.9418 56.4588 29.6421ZM79.4712 15.3357C81.3577 14.1086 85.2555 15.6689 85.455 16.6799C81.0675 19.0996 74.4534 28.9849 75.1223 34.1321C67.3426 34.4239 71.1111 20.7632 79.4712 15.3357ZM108.91 16.4961C108.624 14.32 105.47 13.2952 103.642 13.5502C101.815 13.8053 95.8173 17.7852 95.9125 20.9103C96.0078 24.0353 100.604 26.1241 100.52 27.6843C100.466 28.7069 93.0193 33.1417 91.7903 30.0006C92.2197 29.6197 92.6299 29.217 93.0192 28.7942C94.5657 27.103 92.5159 25.0648 91.8266 24.6787C90.3799 28.1508 85.3553 31.9377 84.0537 30.9496C82.818 30.0144 91.0828 18.5159 98.248 11.2914C111.336 10.887 124.875 11.9601 126.666 15.8251C128.895 12.985 126.587 9.4187 123.655 8.42372C119.737 7.09097 110.943 7.26101 101.633 8.15258C103.878 6.28442 105.787 5.20903 106.926 5.53762C106.57 3.78206 103.443 1.76914 100.411 2.83994C99.5042 3.15704 96.9079 5.63413 93.8083 9.06023C86.3257 10.0598 79.283 11.3903 75.0225 12.638C73.0475 13.2148 73.1473 14.1201 73.2085 14.8049C75.4284 13.4422 82.8769 12.2428 91.5477 11.6384C84.5753 19.7774 76.6392 30.9542 79.6322 33.3715C82.0221 35.3086 87.2871 33.6886 91.1962 30.5245C90.8924 32.3467 92.1213 34.0908 94.2686 34.1574C98.1437 34.2769 105.606 30.1982 105.561 27.6177C105.515 25.0372 101.325 22.6405 101.18 20.6575C101.035 18.6745 108.252 16.3605 108.91 16.4961ZM114.544 14.7175C116.893 14.0856 120.367 15.7263 120.335 16.0641C117.113 17.753 113.893 23.2839 113.079 25.6576C116.063 22.7945 118.521 18.9778 122.442 17.3141C124.074 16.6248 126.802 18.5848 127.333 20.0715C126.51 19.9727 123.498 20.3335 118.181 24.557C122.984 25.0165 121.049 32.1812 124.571 32.9602C123.124 33.8794 119.684 34.4377 118.573 32.9602C117.224 31.1518 117.011 27.3879 114.791 26.9858C112.442 28.7735 110.739 31.3517 110.651 33.8495L110.601 33.6427C110.615 33.7484 110.628 33.8518 110.649 33.9575C102.227 31.0921 111.041 15.9492 114.544 14.7175ZM52.7153 6.204C53.3139 6.16493 54.756 4.80001 54.4567 3.5201C54.1506 2.16897 53.1801 0.482341 49.6202 0.0503441C37.1855 -1.46394 20.7691 31.6229 12.3886 39.9135C11.9624 39.8997 1.03778 41.4324 0.108123 44.739C-0.821532 48.0456 4.41628 49.0911 9.19607 47.3241C13.9759 45.557 17.182 41.7518 17.182 41.7518C22.2339 41.3933 31.9454 41.0027 43.8722 40.7476C43.3666 42.1149 43.0627 43.227 43.0151 43.9899C42.7612 48.0318 46.6703 49.0911 46.566 48.7304C46.1465 47.2804 47.0013 44.3369 48.6429 40.6557C73.7754 40.2237 106.649 40.442 127.339 42.7399C127.227 43.218 127.151 43.7043 127.113 44.1944C126.859 48.234 130.766 49.2934 130.663 48.9349C130.33 47.786 130.691 45.757 131.509 43.2546C139.198 44.3093 144.638 45.7248 146.474 47.5952C147.796 43.1466 142.479 40.272 133.357 38.4888C137.509 28.9665 145.084 16.958 147.846 16.8224C147.427 15.9446 145.125 14.5015 142.144 15.5103C139.57 16.4294 133.693 29.1894 131.487 26.7353C130.029 25.1268 135.015 16.3375 136.137 15.8251C134.169 14.9358 131.058 15.5425 129.856 16.7741C128.616 18.4194 125.891 29.7087 127.816 30.8761C129.212 31.724 131.502 30.3843 134.242 27.8888C132.315 31.0695 130.588 34.3696 129.069 37.7696C108.776 34.8444 75.0338 35.9819 50.1871 37.4387C51.2641 35.3109 52.5225 33.0337 53.8898 30.7221C54.264 32.1537 54.9986 34.0333 57.9168 34.0816C60.835 34.1298 65.2588 30.9059 68.0297 27.103C71.6394 22.1465 72.6258 16.1974 69.6758 15.1748C66.4765 14.0673 61.2137 19.6786 58.0846 24.033C62.9959 15.3839 72.4807 5.33311 75.1223 5.78579C74.7617 3.32249 71.2676 1.87944 69.0568 2.90658C65.1182 4.74486 57.3976 15.6436 51.3707 25.9058L51.3571 25.8897C51.3571 25.8897 47.1033 30.3659 46.2145 29.757C44.5525 28.6081 48.1532 23.5804 50.7698 21.857C50.3685 20.8183 49.169 20.3266 48.5024 20.1543C48.5024 20.1543 49.8334 18.208 49.4093 16.9993C49.0624 15.9975 45.6794 13.0033 38.6639 19.4879C36.537 21.4549 27.1225 30.1407 31.1586 33.6542C33.8342 35.9819 39.0108 30.9427 40.7681 29.6306C40.3032 30.2373 39.072 34.4699 42.8609 34.1597C44.6227 34.0172 46.7972 32.4455 48.6067 30.7933C47.2462 33.321 46.0444 35.6832 45.1125 37.7466C30.5079 38.6658 19.9438 39.6125 18.7829 39.6768C28.9705 26.478 47.7428 -2.37619 52.2527 3.67636C52.9057 4.55644 53.0577 5.86621 52.7153 6.204Z" fill="white"/>
<path fill-rule="evenodd" clip-rule="evenodd" d="M154.245 11.535C154.218 11.4661 154.179 11.3788 154.132 11.2731L153.98 10.9261C153.925 10.8043 153.866 10.6756 153.805 10.5446L153.631 10.1747C153.576 10.0575 153.526 9.9449 153.479 9.86218C153.431 9.77946 153.392 9.69903 153.363 9.65078C153.331 9.99086 153.306 10.3562 153.286 10.7515C153.265 11.1467 153.25 11.5465 153.234 11.9486H152.826C152.826 11.689 152.851 11.4293 152.864 11.1674C152.878 10.9054 152.896 10.6458 152.914 10.3907C152.932 10.1356 152.953 9.88746 152.975 9.64618C152.998 9.40491 153.021 9.18661 153.046 8.95683H153.411C153.488 9.08321 153.572 9.23257 153.66 9.4164C153.748 9.60023 153.839 9.77027 153.928 9.95639C154.016 10.1425 154.102 10.3332 154.186 10.5217L154.413 11.0295C154.481 10.8732 154.558 10.7009 154.64 10.5125C154.721 10.324 154.807 10.1356 154.896 9.9472C154.984 9.75878 155.075 9.57955 155.163 9.40721C155.252 9.23487 155.336 9.08551 155.413 8.94763H155.773C155.872 9.90967 155.947 10.9054 156 11.9348H155.592C155.576 11.5327 155.56 11.1329 155.54 10.7377C155.519 10.3424 155.494 9.97707 155.463 9.63699C155.433 9.68525 155.397 9.75648 155.349 9.84839C155.302 9.94031 155.249 10.0437 155.195 10.1609C155.141 10.2781 155.084 10.3907 155.02 10.5309C154.957 10.671 154.903 10.7905 154.848 10.9123L154.694 11.2593C154.646 11.365 154.61 11.4523 154.581 11.5212L154.245 11.535ZM152.397 8.96142V9.32448H151.465V11.9486H151.048V9.32448H150.105V8.96142H152.397Z" fill="white"/>
</svg>
