<svg width="28" height="32" viewBox="0 0 28 32" fill="none" xmlns="http://www.w3.org/2000/svg">
<path d="M6 0C4.9 0 4 0.9 4 2V30C4 31.1 4.9 32 6 32H26C27.1 32 28 31.1 28 30V8L20 0H6Z" fill="#E2E5E7"/>
<path d="M22 8H28L20 0V6C20 7.1 20.9 8 22 8Z" fill="#B0B7BD"/>
<path d="M28 14L22 8H28V14Z" fill="#CAD1D8"/>
<path d="M24 26C24 26.55 23.55 27 23 27H1C0.45 27 0 26.55 0 26V16C0 15.45 0.45 15 1 15H23C23.55 15 24 15.45 24 16V26Z" fill="white"/>
<path d="M4.35938 18.947C4.35938 18.683 4.56737 18.395 4.90237 18.395H6.74937C7.78937 18.395 8.72538 19.091 8.72538 20.425C8.72538 21.689 7.78937 22.393 6.74937 22.393H5.41437V23.449C5.41437 23.801 5.19037 24 4.90237 24C4.63837 24 4.35938 23.801 4.35938 23.449V18.947ZM5.41437 19.402V21.394H6.74937C7.28537 21.394 7.70937 20.921 7.70937 20.425C7.70937 19.866 7.28537 19.402 6.74937 19.402H5.41437Z" fill="url(#paint0_linear)"/>
<path d="M10.2903 24C10.0263 24 9.73828 23.856 9.73828 23.505V18.963C9.73828 18.676 10.0263 18.467 10.2903 18.467H12.1213C15.7753 18.467 15.6953 24 12.1933 24H10.2903ZM10.7943 19.443V23.025H12.1213C14.2803 23.025 14.3763 19.443 12.1213 19.443H10.7943Z" fill="url(#paint1_linear)"/>
<path d="M16.9913 19.5069V20.7779H19.0303C19.3183 20.7779 19.6063 21.0659 19.6063 21.3449C19.6063 21.6089 19.3183 21.8249 19.0303 21.8249H16.9913V23.5039C16.9913 23.7839 16.7923 23.9989 16.5123 23.9989C16.1603 23.9989 15.9453 23.7839 15.9453 23.5039V18.9619C15.9453 18.6749 16.1613 18.4659 16.5123 18.4659H19.3193C19.6713 18.4659 19.8793 18.6749 19.8793 18.9619C19.8793 19.2179 19.6713 19.5059 19.3193 19.5059H16.9913V19.5069Z" fill="url(#paint2_linear)"/>
<path d="M23 27H4V28H23C23.55 28 24 27.55 24 27V26C24 26.55 23.55 27 23 27Z" fill="#CAD1D8"/>
<defs>
<linearGradient id="paint0_linear" x1="4.43928" y1="19.6772" x2="9.31138" y2="20.4485" gradientUnits="userSpaceOnUse">
<stop stop-color="#3434D8"/>
<stop offset="1" stop-color="#9980F4"/>
</linearGradient>
<linearGradient id="paint1_linear" x1="9.83166" y1="19.7328" x2="15.4703" y2="20.7895" gradientUnits="userSpaceOnUse">
<stop stop-color="#3434D8"/>
<stop offset="1" stop-color="#9980F4"/>
</linearGradient>
<linearGradient id="paint2_linear" x1="16.0173" y1="19.7317" x2="20.4253" y2="20.3686" gradientUnits="userSpaceOnUse">
<stop stop-color="#3434D8"/>
<stop offset="1" stop-color="#9980F4"/>
</linearGradient>
</defs>
</svg>
